<?xml version="1.0" encoding="UTF-8"?>
<svg xmlns="http://www.w3.org/2000/svg" width="400" height="300">
  <rect width="400" height="300" fill="#0c1d16"/>

  <!-- Row 1 -->
  <path d="M-5,15 C8,-2 38,4 52,22 C66,40 56,65 34,68 C12,71 -8,52 -5,15Z" fill="#1b3828"/>
  <path d="M68,2 C88,-6 112,6 118,28 C124,50 106,70 84,66 C62,62 52,32 68,2Z" fill="#234030"/>
  <path d="M152,8 C174,-3 200,10 205,35 C210,60 188,78 164,73 C140,68 134,42 152,8Z" fill="#0e2019"/>
  <path d="M260,4 C282,-5 310,8 314,35 C318,62 295,80 270,74 C245,68 242,38 260,4Z" fill="#1b3828"/>
  <path d="M352,10 C376,-1 404,14 406,42 C408,68 386,85 360,79 C334,73 330,46 352,10Z" fill="#234030"/>

  <!-- Row 2 -->
  <path d="M-8,98 C10,78 42,86 54,108 C66,130 50,155 26,155 C2,155 -16,128 -8,98Z" fill="#0e2019"/>
  <path d="M75,90 C100,72 130,82 136,108 C142,133 124,158 98,156 C72,154 62,118 75,90Z" fill="#1e3c2c"/>
  <path d="M190,84 C215,66 248,78 250,106 C252,132 230,156 202,152 C174,148 168,110 190,84Z" fill="#2b5242"/>
  <path d="M305,88 C330,70 360,82 362,110 C364,136 342,158 314,154 C286,150 278,116 305,88Z" fill="#0e2019"/>
  <path d="M390,95 C410,78 430,92 428,118 C426,140 408,155 390,148 C372,141 370,115 390,95Z" fill="#1b3828"/>

  <!-- Row 3 -->
  <path d="M0,182 C18,160 50,168 60,192 C70,216 54,240 28,240 C2,240 -10,208 0,182Z" fill="#1b3828"/>
  <path d="M85,175 C110,155 142,167 146,195 C150,222 130,246 102,243 C74,240 68,202 85,175Z" fill="#234030"/>
  <path d="M204,178 C228,158 260,170 262,200 C264,228 242,250 214,246 C186,242 180,206 204,178Z" fill="#0e2019"/>
  <path d="M316,172 C342,152 374,166 376,196 C378,224 355,248 325,243 C295,238 288,202 316,172Z" fill="#1e3c2c"/>

  <!-- Accent ellipses -->
  <ellipse cx="28"  cy="148" rx="16" ry="10" fill="#366050" transform="rotate(-22 28 148)"/>
  <ellipse cx="172" cy="44"  rx="20" ry="13" fill="#366050" transform="rotate(18 172 44)"/>
  <ellipse cx="338" cy="132" rx="18" ry="11" fill="#1b3828" transform="rotate(-12 338 132)"/>
  <ellipse cx="108" cy="256" rx="22" ry="13" fill="#2b5242" transform="rotate(25 108 256)"/>
  <ellipse cx="278" cy="252" rx="16" ry="10" fill="#234030" transform="rotate(-18 278 252)"/>
  <ellipse cx="400" cy="100" rx="20" ry="14" fill="#1e3c2c" transform="rotate(8 400 100)"/>
  <ellipse cx="195" cy="248" rx="14" ry="9"  fill="#366050" transform="rotate(12 195 248)"/>
</svg>
