<?xml version="1.0" encoding="UTF-8"?>
<svg xmlns="http://www.w3.org/2000/svg" width="400" height="300">
  <rect width="400" height="300" fill="none"/>

  <!-- ── 本物迷彩：不規則な有機的シェイプ、サイズ・向きバラバラ ── -->

  <!-- DARK (#040f0a) — 大きめ・複雑な輪郭 -->
  <path d="M-8,12 C4,-4 28,0 44,10 C58,20 66,36 58,52 C50,68 28,70 14,60 C0,50 -4,38 -2,26 C-1,20 -8,18 -8,12Z" fill="#040f0a"/>
  <path d="M95,4 C110,-6 134,2 148,18 C162,34 158,56 142,64 C126,72 102,62 90,46 C78,30 80,14 95,4Z" fill="#040f0a"/>
  <path d="M200,8 C218,-4 248,4 260,24 C272,44 264,68 246,74 C228,80 204,68 196,50 C188,32 186,18 200,8Z" fill="#040f0a"/>
  <path d="M316,0 C334,-8 362,6 370,28 C378,50 364,72 344,74 C324,76 306,60 304,40 C302,20 300,8 316,0Z" fill="#040f0a"/>
  <path d="M28,90 C44,76 72,82 84,100 C96,118 88,144 70,150 C52,156 28,144 20,126 C12,108 12,104 28,90Z" fill="#040f0a"/>
  <path d="M138,78 C158,66 188,76 198,98 C208,120 196,148 176,154 C156,160 130,146 124,124 C118,102 118,90 138,78Z" fill="#040f0a"/>
  <path d="M258,84 C278,70 308,80 316,104 C324,128 310,154 290,158 C270,162 246,148 240,126 C234,104 238,98 258,84Z" fill="#040f0a"/>
  <path d="M-4,176 C12,160 42,164 56,184 C70,204 62,232 42,238 C22,244 -2,230 -6,210 C-10,190 -8,186 -4,176Z" fill="#040f0a"/>
  <path d="M112,168 C132,154 162,162 172,184 C182,206 170,234 150,240 C130,246 106,232 100,210 C94,188 92,182 112,168Z" fill="#040f0a"/>
  <path d="M236,172 C256,158 284,168 292,190 C300,212 288,238 268,242 C248,246 224,232 218,210 C212,188 216,186 236,172Z" fill="#040f0a"/>
  <path d="M356,160 C374,148 398,158 402,180 C406,202 394,224 376,228 C358,232 338,218 336,198 C334,178 340,172 356,160Z" fill="#040f0a"/>

  <!-- OLIVE (#3d7455) — 中サイズ・細長いものも -->
  <path d="M52,6 C66,-4 88,4 96,22 C104,40 96,62 80,66 C64,70 46,56 44,38 C42,20 40,14 52,6Z" fill="#3d7455"/>
  <path d="M162,0 C176,-8 200,2 206,22 C212,42 200,64 184,66 C168,68 150,54 150,36 C150,18 150,8 162,0Z" fill="#3d7455"/>
  <path d="M280,10 C298,-2 326,8 330,30 C334,52 318,72 300,72 C282,72 266,56 268,38 C270,20 264,20 280,10Z" fill="#3d7455"/>
  <path d="M384,4 C398,-4 416,8 414,28 C412,48 398,62 384,60 C370,58 360,44 364,28 C368,12 372,10 384,4Z" fill="#3d7455"/>
  <path d="M-6,56 C8,44 32,50 40,68 C48,86 40,110 22,114 C4,118 -8,102 -8,84 C-8,66 -4,64 -6,56Z" fill="#3d7455"/>
  <path d="M94,58 C112,44 140,54 146,76 C152,98 138,122 118,124 C98,126 78,110 80,90 C82,70 78,70 94,58Z" fill="#3d7455"/>
  <path d="M208,62 C228,48 256,60 260,82 C264,104 248,128 228,128 C208,128 190,112 192,92 C194,72 190,74 208,62Z" fill="#3d7455"/>
  <path d="M332,56 C350,44 376,56 378,78 C380,100 364,122 346,122 C328,122 312,106 314,86 C316,66 316,66 332,56Z" fill="#3d7455"/>
  <path d="M14,132 C30,120 56,128 62,148 C68,168 56,192 38,196 C20,200 2,184 2,164 C2,144 0,142 14,132Z" fill="#3d7455"/>
  <path d="M168,124 C186,112 212,122 216,144 C220,166 206,188 188,190 C170,192 152,176 154,156 C156,136 152,134 168,124Z" fill="#3d7455"/>
  <path d="M290,128 C308,116 334,128 336,150 C338,172 322,194 304,194 C286,194 270,178 272,158 C274,138 274,138 290,128Z" fill="#3d7455"/>
  <path d="M60,170 C76,158 102,166 106,188 C110,210 96,232 78,234 C60,236 44,220 46,200 C48,180 46,180 60,170Z" fill="#3d7455"/>
  <path d="M182,164 C200,152 226,162 228,184 C230,206 214,228 196,228 C178,228 162,212 164,192 C166,172 166,174 182,164Z" fill="#3d7455"/>
  <path d="M306,168 C324,156 350,168 350,190 C350,212 334,232 316,232 C298,232 282,216 284,196 C286,176 290,178 306,168Z" fill="#3d7455"/>

  <!-- MID (#1e4232) — つなぎ役・細いストローク風 -->
  <path d="M72,20 C82,10 102,16 108,34 C114,52 104,72 90,72 C76,72 64,58 68,42 C72,26 64,28 72,20Z" fill="#1e4232"/>
  <path d="M176,14 C190,4 212,12 214,32 C216,52 202,70 188,68 C174,66 164,50 168,34 C172,18 166,22 176,14Z" fill="#1e4232"/>
  <path d="M298,6 C314,-4 338,6 338,28 C338,50 322,66 308,62 C294,58 284,42 288,26 C292,10 286,14 298,6Z" fill="#1e4232"/>
  <path d="M-10,108 C4,96 28,104 34,124 C40,144 28,166 12,166 C-4,166 -14,150 -10,132 C-6,114 -10,116 -10,108Z" fill="#1e4232"/>
  <path d="M116,98 C132,88 156,96 158,118 C160,140 146,160 130,158 C114,156 102,140 106,122 C110,104 102,106 116,98Z" fill="#1e4232"/>
  <path d="M238,92 C254,82 278,92 278,114 C278,136 262,154 246,150 C230,146 220,130 224,112 C228,94 224,100 238,92Z" fill="#1e4232"/>
  <path d="M358,88 C374,78 396,90 394,112 C392,134 376,150 362,146 C348,142 340,126 344,108 C348,90 344,96 358,88Z" fill="#1e4232"/>
  <path d="M36,146 C52,136 76,144 78,166 C80,188 64,206 48,202 C32,198 22,182 26,164 C30,146 22,154 36,146Z" fill="#1e4232"/>
  <path d="M152,140 C168,130 192,140 192,162 C192,184 174,200 158,196 C142,192 132,176 136,158 C140,140 138,148 152,140Z" fill="#1e4232"/>
  <path d="M272,136 C288,126 312,138 310,160 C308,182 292,196 278,190 C264,184 256,168 260,150 C264,132 258,144 272,136Z" fill="#1e4232"/>
  <path d="M396,132 C406,124 414,136 410,156 C406,176 396,186 386,182 C376,178 374,164 378,148 C382,132 388,138 396,132Z" fill="#1e4232"/>
  <path d="M-4,228 C12,216 36,226 36,248 C36,270 20,282 6,276 C-8,270 -12,254 -8,240 C-4,226 -4,234 -4,228Z" fill="#1e4232"/>
  <path d="M80,220 C96,210 120,220 118,242 C116,264 100,276 86,270 C72,264 64,248 68,232 C72,216 66,228 80,220Z" fill="#1e4232"/>
  <path d="M200,216 C216,206 240,218 238,240 C236,262 218,274 204,268 C190,262 182,246 186,230 C190,214 186,224 200,216Z" fill="#1e4232"/>
  <path d="M320,212 C336,202 360,214 358,236 C356,258 338,270 324,264 C310,258 302,242 306,226 C310,210 306,220 320,212Z" fill="#1e4232"/>
</svg>
