<?xml version="1.0" encoding="UTF-8"?>
<svg xmlns="http://www.w3.org/2000/svg" width="300" height="225">
  <rect width="300" height="225" fill="none"/>

  <!-- DARK (#040f0a) -->
  <path d="M4,8 C10,2 22,4 26,14 C30,24 22,34 12,32 C2,30 -2,14 4,8Z" fill="#040f0a"/>
  <path d="M48,0 C56,-3 66,4 68,14 C70,24 62,30 52,28 C42,26 40,12 48,0Z" fill="#040f0a"/>
  <path d="M88,18 C94,10 106,14 108,26 C110,38 100,44 90,40 C80,36 80,28 88,18Z" fill="#040f0a"/>
  <path d="M130,4 C138,-2 150,2 152,14 C154,26 144,32 134,28 C124,24 122,12 130,4Z" fill="#040f0a"/>
  <path d="M172,12 C180,4 192,8 194,20 C196,32 186,38 176,34 C166,30 164,20 172,12Z" fill="#040f0a"/>
  <path d="M218,2 C226,-4 238,2 238,14 C238,26 228,30 218,26 C208,22 208,10 218,2Z" fill="#040f0a"/>
  <path d="M262,8 C270,2 282,6 282,18 C282,30 272,34 262,30 C252,26 252,16 262,8Z" fill="#040f0a"/>
  <path d="M10,52 C18,44 30,48 32,60 C34,72 24,78 14,74 C4,70 2,60 10,52Z" fill="#040f0a"/>
  <path d="M62,44 C70,38 82,42 84,54 C86,66 76,72 66,68 C56,64 52,52 62,44Z" fill="#040f0a"/>
  <path d="M108,48 C116,40 128,46 128,58 C128,70 118,74 108,70 C98,66 98,58 108,48Z" fill="#040f0a"/>
  <path d="M158,40 C166,34 178,38 178,50 C178,62 168,68 158,64 C148,60 148,48 158,40Z" fill="#040f0a"/>
  <path d="M206,46 C214,38 226,44 226,56 C226,68 216,72 206,68 C196,64 196,56 206,46Z" fill="#040f0a"/>
  <path d="M252,42 C260,36 272,40 272,52 C272,64 262,68 252,64 C242,60 242,50 252,42Z" fill="#040f0a"/>
  <path d="M20,96 C28,88 40,92 40,104 C40,116 30,120 20,116 C10,112 10,104 20,96Z" fill="#040f0a"/>
  <path d="M72,90 C80,82 92,88 92,100 C92,112 82,116 72,112 C62,108 62,100 72,90Z" fill="#040f0a"/>
  <path d="M122,94 C130,86 142,92 142,104 C142,116 132,120 122,116 C112,112 112,104 122,94Z" fill="#040f0a"/>
  <path d="M170,88 C178,82 190,86 190,98 C190,110 180,114 170,110 C160,106 160,96 170,88Z" fill="#040f0a"/>
  <path d="M218,92 C226,86 238,90 238,102 C238,114 228,118 218,114 C208,110 208,100 218,92Z" fill="#040f0a"/>
  <path d="M266,88 C274,82 286,88 286,100 C286,112 276,116 266,112 C256,108 256,96 266,88Z" fill="#040f0a"/>
  <path d="M8,140 C16,132 28,138 28,150 C28,162 18,166 8,162 C-2,158 -2,148 8,140Z" fill="#040f0a"/>
  <path d="M56,136 C64,128 76,134 76,146 C76,158 66,162 56,158 C46,154 44,146 56,136Z" fill="#040f0a"/>
  <path d="M106,140 C114,132 126,138 126,150 C126,162 116,166 106,162 C96,158 96,148 106,140Z" fill="#040f0a"/>
  <path d="M156,134 C164,128 176,132 176,144 C176,156 166,160 156,156 C146,152 146,142 156,134Z" fill="#040f0a"/>
  <path d="M204,138 C212,132 224,136 224,148 C224,160 214,164 204,160 C194,156 194,146 204,138Z" fill="#040f0a"/>
  <path d="M252,132 C260,126 272,130 272,142 C272,154 262,158 252,154 C242,150 242,140 252,132Z" fill="#040f0a"/>
  <path d="M14,182 C22,174 34,180 34,192 C34,204 24,208 14,204 C4,200 4,190 14,182Z" fill="#040f0a"/>
  <path d="M62,178 C70,170 82,176 82,188 C82,200 72,204 62,200 C52,196 52,186 62,178Z" fill="#040f0a"/>
  <path d="M114,182 C122,174 134,180 134,192 C134,204 124,208 114,204 C104,200 104,190 114,182Z" fill="#040f0a"/>
  <path d="M162,176 C170,168 182,174 182,186 C182,198 172,202 162,198 C152,194 152,184 162,176Z" fill="#040f0a"/>
  <path d="M210,180 C218,172 230,178 230,190 C230,202 220,206 210,202 C200,198 200,190 210,180Z" fill="#040f0a"/>
  <path d="M258,176 C266,168 278,174 278,186 C278,198 268,202 258,198 C248,194 248,184 258,176Z" fill="#040f0a"/>

  <!-- OLIVE (#3d7455) -->
  <path d="M28,4 C34,-2 44,2 46,12 C48,22 40,28 30,24 C20,20 20,10 28,4Z" fill="#3d7455"/>
  <path d="M70,10 C78,2 90,6 90,18 C90,30 80,34 70,30 C60,26 60,18 70,10Z" fill="#3d7455"/>
  <path d="M114,2 C122,-4 134,2 134,14 C134,26 124,30 114,26 C104,22 104,10 114,2Z" fill="#3d7455"/>
  <path d="M154,8 C162,0 174,6 174,18 C174,30 164,34 154,30 C144,26 144,16 154,8Z" fill="#3d7455"/>
  <path d="M198,4 C206,-2 218,2 218,14 C218,26 208,30 198,26 C188,22 188,12 198,4Z" fill="#3d7455"/>
  <path d="M242,10 C250,2 262,8 262,20 C262,32 252,36 242,32 C232,28 232,18 242,10Z" fill="#3d7455"/>
  <path d="M284,2 C292,-4 300,2 298,14 C296,26 288,28 280,24 C272,20 276,10 284,2Z" fill="#3d7455"/>
  <path d="M36,48 C44,40 56,46 56,58 C56,70 46,74 36,70 C26,66 26,56 36,48Z" fill="#3d7455"/>
  <path d="M84,52 C92,44 104,50 104,62 C104,74 94,78 84,74 C74,70 74,62 84,52Z" fill="#3d7455"/>
  <path d="M134,44 C142,38 154,42 154,54 C154,66 144,70 134,66 C124,62 124,52 134,44Z" fill="#3d7455"/>
  <path d="M182,48 C190,42 202,46 202,58 C202,70 192,74 182,70 C172,66 172,56 182,48Z" fill="#3d7455"/>
  <path d="M228,44 C236,38 248,44 248,56 C248,68 238,72 228,68 C218,64 218,52 228,44Z" fill="#3d7455"/>
  <path d="M276,50 C284,42 296,48 296,60 C296,72 286,76 276,72 C266,68 266,58 276,50Z" fill="#3d7455"/>
  <path d="M46,94 C54,86 66,92 66,104 C66,116 56,120 46,116 C36,112 36,104 46,94Z" fill="#3d7455"/>
  <path d="M96,90 C104,84 116,88 116,100 C116,112 106,116 96,112 C86,108 86,98 96,90Z" fill="#3d7455"/>
  <path d="M146,92 C154,86 166,90 166,102 C166,114 156,118 146,114 C136,110 136,100 146,92Z" fill="#3d7455"/>
  <path d="M194,88 C202,82 214,88 214,100 C214,112 204,116 194,112 C184,108 184,96 194,88Z" fill="#3d7455"/>
  <path d="M242,90 C250,84 262,90 262,102 C262,114 252,118 242,114 C232,110 232,98 242,90Z" fill="#3d7455"/>
  <path d="M290,86 C298,80 306,86 304,98 C302,110 294,112 286,108 C278,104 280,94 290,86Z" fill="#3d7455"/>
  <path d="M30,140 C38,132 50,138 50,150 C50,162 40,166 30,162 C20,158 20,148 30,140Z" fill="#3d7455"/>
  <path d="M80,136 C88,130 100,134 100,146 C100,158 90,162 80,158 C70,154 70,144 80,136Z" fill="#3d7455"/>
  <path d="M130,138 C138,132 150,136 150,148 C150,160 140,164 130,160 C120,156 120,146 130,138Z" fill="#3d7455"/>
  <path d="M178,132 C186,126 198,132 198,144 C198,156 188,160 178,156 C168,152 168,140 178,132Z" fill="#3d7455"/>
  <path d="M228,136 C236,128 248,134 248,146 C248,158 238,162 228,158 C218,154 218,144 228,136Z" fill="#3d7455"/>
  <path d="M276,130 C284,124 296,130 296,142 C296,154 286,158 276,154 C266,150 266,138 276,130Z" fill="#3d7455"/>
  <path d="M38,180 C46,172 58,178 58,190 C58,202 48,206 38,202 C28,198 28,188 38,180Z" fill="#3d7455"/>
  <path d="M88,176 C96,170 108,174 108,186 C108,198 98,202 88,198 C78,194 78,184 88,176Z" fill="#3d7455"/>
  <path d="M138,180 C146,172 158,178 158,190 C158,202 148,206 138,202 C128,198 128,188 138,180Z" fill="#3d7455"/>
  <path d="M186,174 C194,168 206,172 206,184 C206,196 196,200 186,196 C176,192 176,182 186,174Z" fill="#3d7455"/>
  <path d="M234,178 C242,170 254,176 254,188 C254,200 244,204 234,200 C224,196 224,186 234,178Z" fill="#3d7455"/>
  <path d="M282,174 C290,166 302,172 300,184 C298,196 290,198 282,194 C274,190 274,182 282,174Z" fill="#3d7455"/>

  <!-- MID (#1e4232) -->
  <path d="M16,24 C24,16 36,22 36,34 C36,46 26,50 16,46 C6,42 6,32 16,24Z" fill="#1e4232"/>
  <path d="M58,20 C66,12 78,18 78,30 C78,42 68,46 58,42 C48,38 48,28 58,20Z" fill="#1e4232"/>
  <path d="M100,16 C108,10 120,14 120,26 C120,38 110,42 100,38 C90,34 90,24 100,16Z" fill="#1e4232"/>
  <path d="M144,22 C152,14 164,20 164,32 C164,44 154,48 144,44 C134,40 134,30 144,22Z" fill="#1e4232"/>
  <path d="M190,18 C198,10 210,16 210,28 C210,40 200,44 190,40 C180,36 180,26 190,18Z" fill="#1e4232"/>
  <path d="M236,14 C244,8 256,12 256,24 C256,36 246,40 236,36 C226,32 226,22 236,14Z" fill="#1e4232"/>
  <path d="M278,18 C286,10 298,16 298,28 C298,40 288,44 278,40 C268,36 268,26 278,18Z" fill="#1e4232"/>
  <path d="M22,68 C30,60 42,66 42,78 C42,90 32,94 22,90 C12,86 12,76 22,68Z" fill="#1e4232"/>
  <path d="M74,62 C82,56 94,60 94,72 C94,84 84,88 74,84 C64,80 62,72 74,62Z" fill="#1e4232"/>
  <path d="M120,66 C128,60 140,64 140,76 C140,88 130,92 120,88 C110,84 110,74 120,66Z" fill="#1e4232"/>
  <path d="M168,62 C176,56 188,60 188,72 C188,84 178,88 168,84 C158,80 158,70 168,62Z" fill="#1e4232"/>
  <path d="M214,66 C222,58 234,64 234,76 C234,88 224,92 214,88 C204,84 204,74 214,66Z" fill="#1e4232"/>
  <path d="M260,60 C268,54 280,58 280,70 C280,82 270,86 260,82 C250,78 250,68 260,60Z" fill="#1e4232"/>
  <path d="M34,112 C42,104 54,110 54,122 C54,134 44,138 34,134 C24,130 24,120 34,112Z" fill="#1e4232"/>
  <path d="M82,108 C90,100 102,106 102,118 C102,130 92,134 82,130 C72,126 72,116 82,108Z" fill="#1e4232"/>
  <path d="M132,110 C140,102 152,108 152,120 C152,132 142,136 132,132 C122,128 122,118 132,110Z" fill="#1e4232"/>
  <path d="M180,106 C188,100 200,104 200,116 C200,128 190,132 180,128 C170,124 170,114 180,106Z" fill="#1e4232"/>
  <path d="M228,108 C236,102 248,106 248,118 C248,130 238,134 228,130 C218,126 218,116 228,108Z" fill="#1e4232"/>
  <path d="M276,104 C284,98 296,102 296,114 C296,126 286,130 276,126 C266,122 266,112 276,104Z" fill="#1e4232"/>
  <path d="M18,158 C26,150 38,154 38,166 C38,178 28,182 18,178 C8,174 8,166 18,158Z" fill="#1e4232"/>
  <path d="M68,154 C76,146 88,152 88,164 C88,176 78,180 68,176 C58,172 58,162 68,154Z" fill="#1e4232"/>
  <path d="M118,156 C126,148 138,154 138,166 C138,178 128,182 118,178 C108,174 108,164 118,156Z" fill="#1e4232"/>
  <path d="M168,152 C176,144 188,150 188,162 C188,174 178,178 168,174 C158,170 158,160 168,152Z" fill="#1e4232"/>
  <path d="M216,156 C224,148 236,154 236,166 C236,178 226,182 216,178 C206,174 206,164 216,156Z" fill="#1e4232"/>
  <path d="M264,150 C272,144 284,148 284,160 C284,172 274,176 264,172 C254,168 254,158 264,150Z" fill="#1e4232"/>
  <path d="M26,200 C34,192 46,196 46,208 C46,220 36,222 26,218 C16,214 16,206 26,200Z" fill="#1e4232"/>
  <path d="M76,196 C84,188 96,194 96,206 C96,218 86,222 76,218 C66,214 66,204 76,196Z" fill="#1e4232"/>
  <path d="M126,198 C134,190 146,196 146,208 C146,220 136,224 126,220 C116,216 116,206 126,198Z" fill="#1e4232"/>
  <path d="M174,194 C182,186 194,192 194,204 C194,216 184,220 174,216 C164,212 164,202 174,194Z" fill="#1e4232"/>
  <path d="M222,198 C230,190 242,196 242,208 C242,220 232,224 222,220 C212,216 212,206 222,198Z" fill="#1e4232"/>
  <path d="M270,192 C278,186 290,190 290,202 C290,214 280,218 270,214 C260,210 260,200 270,192Z" fill="#1e4232"/>
</svg>
